<svg xmlns="http://www.w3.org/2000/svg" width="22" height="22" viewBox="0 0 22 22">
    <g>
        <path d="M6.917 7.833h1.531l2.295 10.355a3.289 3.289 0 0 0-1.871 3.042 3.133 3.133 0 0 0 2.962 3.275h12.154a.917.917 0 1 0 0-1.833H11.833a1.332 1.332 0 0 1-1.133-1.441 1.332 1.332 0 0 1 1.128-1.442h12.16a.917.917 0 0 0 .863-.606l3.1-8.591a.917.917 0 0 0-.863-1.227H10.665l-.586-2.646A.916.916 0 0 0 9.184 6H6.917a.917.917 0 0 0 0 1.833zM25.779 11.2l-2.435 6.758H12.568l-1.5-6.758h14.711z" transform="translate(-6 -6)"/>
        <path d="M19.261 50a.917.917 0 0 0 0 1.833h1.164a.917.917 0 1 0 0-1.833z" transform="translate(-6 -6) translate(-6.687 -23.833)"/>
        <path d="M37.713 50a.917.917 0 0 0 0 1.833h1.164a.917.917 0 1 0 0-1.833z" transform="translate(-6 -6) translate(-16.682 -23.833)"/>
    </g>
</svg>
